# xmcd CD database file
#
# Track frame offsets:
#	150
#	23025
#	41100
#	67650
#	92325
#	112200
#	133425
#	152475
#	171450
#	195450
#	213675
#	228450
#	242625
#	259725
#	273975
#	287100
#	303000
#	317250
#
# Disc length: 4484 seconds
#
# Revision: 0
# Processed by: cddbd v1.5.1PL0 Copyright (c) Steve Scherf et al.
# Submitted via: CDex 1.51
#
DISCID=fb118212
DTITLE=Various Artist - 80 Best Ballads [CD3-Jazz)
DYEAR=1900
DGENRE=Jazz
TTITLE0=Dave Grusin - Mountain Dance (Main thame from FALLING IN LOVE)
TTITLE1=Kim Pensyl - Eyes of wonder
TTITLE2=Yellow Jackets - Even Song
TTITLE3=Gato Barbieri - Cuanto vuelva a tu lado
TTITLE4=Toots Thielemans - Coracao Vagabundo
TTITLE5=John Pizzarelli - The more I see you
TTITLE6=Ottmar Liebert - Samba pa ti
TTITLE7=Dionne Warwick - Night and day
TTITLE8=Stan Getz feat. Joao Gilberto - Ligia
TTITLE9=Lennie Tristano - You go to my head
TTITLE10=Betty Carter - Round midnight
TTITLE11=LaVern Baker - Tweedle dee
TTITLE12=Jimmy Scott - Our day will come
TTITLE13=Lionel Hampton - Blue moon
TTITLE14=Billie Holiday - Don't explain
TTITLE15=Miles Davis - Time after time
TTITLE16=Blood Sweat and Tears - Sometimes in winter
TTITLE17=John Coltrane - My favorite things
EXTD=
EXTT0=
EXTT1=
EXTT2=
EXTT3=
EXTT4=
EXTT5=
EXTT6=
EXTT7=
EXTT8=
EXTT9=
EXTT10=
EXTT11=
EXTT12=
EXTT13=
EXTT14=
EXTT15=
EXTT16=
EXTT17=
PLAYORDER=
